<svg width="960" height="540" viewBox="0 0 960 540" fill="none" xmlns="http://www.w3.org/2000/svg">
  <rect width="960" height="540" rx="24" fill="#F8FAFC" />
  <rect x="40" y="40" width="880" height="460" rx="20" fill="#FFFFFF" stroke="#E2E8F0" stroke-width="2" />

  <rect x="70" y="70" width="820" height="44" rx="12" fill="#F1F5F9" />
  <rect x="90" y="84" width="210" height="18" rx="9" fill="#CBD5E1" />
  <rect x="740" y="84" width="90" height="18" rx="9" fill="#6366F1" opacity="0.20" />
  <rect x="840" y="84" width="50" height="18" rx="9" fill="#CBD5E1" />

  <rect x="70" y="130" width="820" height="68" rx="16" fill="#F8FAFC" stroke="#E2E8F0" />
  <rect x="92" y="148" width="260" height="20" rx="10" fill="#CBD5E1" />
  <rect x="366" y="148" width="180" height="20" rx="10" fill="#CBD5E1" />
  <rect x="560" y="148" width="180" height="20" rx="10" fill="#CBD5E1" />
  <rect x="754" y="148" width="112" height="20" rx="10" fill="#6366F1" opacity="0.18" />

  <rect x="70" y="214" width="820" height="282" rx="16" fill="#F8FAFC" stroke="#E2E8F0" />
  <g fill="#CBD5E1">
    <rect x="92" y="236" width="540" height="14" rx="7" />
    <rect x="92" y="280" width="520" height="14" rx="7" />
    <rect x="92" y="324" width="560" height="14" rx="7" />
    <rect x="92" y="368" width="500" height="14" rx="7" />
    <rect x="92" y="412" width="540" height="14" rx="7" />
    <rect x="92" y="456" width="480" height="14" rx="7" />
  </g>
  <rect x="712" y="232" width="164" height="252" rx="14" fill="#6366F1" opacity="0.08" />
  <g fill="#94A3B8">
    <rect x="734" y="250" width="120" height="12" rx="6" />
    <rect x="734" y="294" width="120" height="12" rx="6" />
    <rect x="734" y="338" width="120" height="12" rx="6" />
    <rect x="734" y="382" width="120" height="12" rx="6" />
    <rect x="734" y="426" width="120" height="12" rx="6" />
  </g>
</svg>
