<svg width="960" height="540" viewBox="0 0 960 540" fill="none" xmlns="http://www.w3.org/2000/svg">
  <rect width="960" height="540" rx="24" fill="#F8FAFC" />
  <rect x="40" y="40" width="880" height="460" rx="20" fill="#FFFFFF" stroke="#E2E8F0" stroke-width="2" />

  <rect x="70" y="70" width="820" height="44" rx="12" fill="#F1F5F9" />
  <rect x="90" y="84" width="220" height="18" rx="9" fill="#CBD5E1" />
  <rect x="800" y="84" width="90" height="18" rx="9" fill="#CBD5E1" />

  <rect x="70" y="130" width="820" height="366" rx="16" fill="#F8FAFC" stroke="#E2E8F0" />

  <rect x="92" y="152" width="300" height="320" rx="14" fill="#FFFFFF" stroke="#E2E8F0" />
  <rect x="416" y="152" width="450" height="320" rx="14" fill="#FFFFFF" stroke="#E2E8F0" />

  <g fill="#CBD5E1">
    <rect x="116" y="174" width="220" height="14" rx="7" />
    <rect x="116" y="208" width="200" height="14" rx="7" />
    <rect x="116" y="242" width="210" height="14" rx="7" />
    <rect x="116" y="276" width="190" height="14" rx="7" />
    <rect x="116" y="310" width="220" height="14" rx="7" />
    <rect x="116" y="344" width="180" height="14" rx="7" />
    <rect x="116" y="378" width="210" height="14" rx="7" />
  </g>

  <rect x="438" y="178" width="230" height="18" rx="9" fill="#6366F1" opacity="0.16" />
  <rect x="438" y="214" width="370" height="18" rx="9" fill="#CBD5E1" />
  <rect x="438" y="250" width="300" height="18" rx="9" fill="#CBD5E1" />

  <rect x="438" y="296" width="196" height="18" rx="9" fill="#CBD5E1" />
  <rect x="644" y="296" width="164" height="18" rx="9" fill="#CBD5E1" />
  <rect x="818" y="296" width="48" height="18" rx="9" fill="#CBD5E1" />
</svg>
