<svg width="960" height="540" viewBox="0 0 960 540" fill="none" xmlns="http://www.w3.org/2000/svg">
  <rect width="960" height="540" rx="24" fill="#F8FAFC" />
  <rect x="40" y="40" width="880" height="460" rx="20" fill="#FFFFFF" stroke="#E2E8F0" stroke-width="2" />

  <rect x="70" y="70" width="820" height="44" rx="12" fill="#F1F5F9" />
  <rect x="90" y="84" width="170" height="18" rx="9" fill="#6366F1" opacity="0.18" />
  <rect x="270" y="84" width="120" height="18" rx="9" fill="#CBD5E1" />
  <rect x="400" y="84" width="120" height="18" rx="9" fill="#CBD5E1" />
  <rect x="830" y="84" width="60" height="18" rx="9" fill="#CBD5E1" />

  <rect x="70" y="130" width="820" height="86" rx="16" fill="#F8FAFC" stroke="#E2E8F0" />
  <rect x="92" y="150" width="320" height="20" rx="10" fill="#CBD5E1" />
  <rect x="426" y="150" width="220" height="20" rx="10" fill="#CBD5E1" />
  <rect x="660" y="150" width="206" height="20" rx="10" fill="#CBD5E1" />
  <rect x="92" y="182" width="170" height="20" rx="10" fill="#6366F1" opacity="0.16" />

  <rect x="70" y="230" width="820" height="266" rx="16" fill="#F8FAFC" stroke="#E2E8F0" />
  <g fill="#CBD5E1">
    <rect x="92" y="252" width="520" height="14" rx="7" />
    <rect x="92" y="296" width="540" height="14" rx="7" />
    <rect x="92" y="340" width="500" height="14" rx="7" />
    <rect x="92" y="384" width="560" height="14" rx="7" />
    <rect x="92" y="428" width="520" height="14" rx="7" />
    <rect x="92" y="472" width="480" height="14" rx="7" />
  </g>
  <rect x="700" y="248" width="176" height="236" rx="14" fill="#6366F1" opacity="0.08" />
  <g fill="#94A3B8">
    <rect x="722" y="266" width="132" height="12" rx="6" />
    <rect x="722" y="310" width="132" height="12" rx="6" />
    <rect x="722" y="354" width="132" height="12" rx="6" />
    <rect x="722" y="398" width="132" height="12" rx="6" />
    <rect x="722" y="442" width="132" height="12" rx="6" />
  </g>
</svg>
