<svg width="640" height="640" viewBox="0 0 640 640" fill="none" xmlns="http://www.w3.org/2000/svg">
  <defs>
    <linearGradient id="bg" x1="80" y1="40" x2="560" y2="600" gradientUnits="userSpaceOnUse">
      <stop stop-color="#F8FAFC" />
      <stop offset="1" stop-color="#E2E8F0" />
    </linearGradient>
    <linearGradient id="accent" x1="220" y1="210" x2="420" y2="470" gradientUnits="userSpaceOnUse">
      <stop stop-color="#334155" stop-opacity="0.9" />
      <stop offset="1" stop-color="#0F172A" stop-opacity="0.95" />
    </linearGradient>
  </defs>

  <rect x="0" y="0" width="640" height="640" rx="56" fill="url(#bg)" />
  <rect x="40" y="40" width="560" height="560" rx="44" fill="white" fill-opacity="0.6" />

  <!-- simple pottery mark -->
  <path
    d="M254 250c0-32 26-58 58-58h16c32 0 58 26 58 58v10c0 17-6 33-17 45l-6 7c-7 8-11 18-11 28v56c0 28-23 51-51 51h-8c-28 0-51-23-51-51v-56c0-10-4-20-11-28l-6-7c-11-12-17-28-17-45v-10Z"
    fill="url(#accent)"
    opacity="0.85"
  />
  <path
    d="M406 298c22 0 40 18 40 40s-18 40-40 40h-18v-20h18c11 0 20-9 20-20s-9-20-20-20h-18v-20h18Z"
    fill="#0F172A"
    opacity="0.85"
  />
  <path
    d="M270 498h100"
    stroke="#334155"
    stroke-width="18"
    stroke-linecap="round"
    opacity="0.6"
  />

  <text x="320" y="560" text-anchor="middle" font-family="ui-sans-serif, system-ui, -apple-system, Segoe UI, Roboto, Helvetica, Arial" font-size="22" fill="#334155" opacity="0.9">
    image coming soon
  </text>
</svg>

